# Blender v2.78 (sub 0) OBJ File: ''
# www.blender.org
mtllib CornelBox.mtl
o shortBox
v 0.040000 1.200000 -0.090000
v -0.710000 1.200000 -0.490000
v -0.530000 1.200000 0.090000
v -0.530000 1.200000 0.090000
v -0.710000 0.019989 -0.490000
v -0.530000 0.019989 0.090000
v -0.710000 1.200000 -0.490000
v -0.140000 0.015070 -0.670000
v -0.710000 0.020154 -0.490000
v -0.140000 1.200000 -0.670000
v 0.040000 0.014832 -0.090000
v -0.140000 0.020155 -0.670000
v 0.040000 1.200000 -0.090000
v -0.530000 0.020154 0.090000
v 0.040000 0.020154 -0.090000
v -0.140000 1.200000 -0.670000
v -0.710000 1.200000 -0.490000
v -0.140000 1.200000 -0.670000
v 0.040000 1.200000 -0.090000
v -0.530000 1.200000 0.090000
v 1.000000 -0.000000 0.990000
v 1.000000 1.990000 -1.040000
v 1.000000 0.000000 -1.040000
v 1.000000 1.990000 0.990000
v -0.240000 1.980000 -0.220000
v 0.230000 1.980000 0.160000
v -0.240000 1.980000 0.160000
v 0.230000 1.980000 -0.220000
v -1.010000 -0.000000 0.990000
v -1.020000 1.990000 -1.040000
v -1.020000 1.990000 0.990000
v -0.990000 0.000000 -1.040000
v 0.530000 0.600000 0.750000
v 0.130000 0.600000 0.000000
v -0.050000 0.600000 0.570000
v -0.050000 0.600000 0.570000
v 0.130000 0.000000 0.000000
v -0.050000 -0.000000 0.570000
v 0.530000 0.600000 0.750000
v -0.050000 -0.000000 0.570000
v 0.530000 -0.000000 0.750000
v 0.130000 0.600000 0.000000
v 0.700000 -0.000000 0.170000
v 0.130000 0.000000 0.000000
v 0.700000 0.600000 0.170000
v 0.530000 -0.000000 0.750000
v 0.700000 -0.000000 0.170000
v 0.700000 0.600000 0.170000
v 0.130000 0.600000 0.000000
v -0.050000 0.600000 0.570000
v 0.700000 0.600000 0.170000
v 0.530000 0.600000 0.750000
v -1.020000 1.990000 -1.040000
v 1.000000 1.990000 0.990000
v -1.020000 1.990000 0.990000
v 1.000000 1.990000 -1.040000
v -0.990000 0.000000 -1.040000
v 1.000000 1.990000 -1.040000
v -1.020000 1.990000 -1.040000
v 1.000000 0.000000 -1.040000
v 1.000000 -0.000000 0.990000
v -0.990000 0.000000 -1.040000
v -1.010000 -0.000000 0.990000
v 1.000000 0.000000 -1.040000
vn -1.0000 0.0000 0.0000
vn 0.0000 -1.0000 0.0000
vn 0.0000 -0.0000 1.0000
vn -0.0000 1.0000 0.0000
vn -0.9536 0.0000 -0.3011
vn -0.2964 -0.0000 0.9551
vn 0.2858 0.0000 -0.9583
vn 0.9596 -0.0000 0.2813
vn -0.9551 -0.0000 0.2964
vn -0.3011 0.0000 -0.9536
vn 0.9551 0.0000 -0.2964
vn 0.3011 -0.0000 0.9536
vn 0.2133 -0.7060 0.6753
vn 0.2126 -0.7082 0.6732
vn 0.9999 0.0100 0.0049
vn 0.9999 0.0101 0.0050
vn 1.0000 0.0050 0.0000
vn 0.9998 0.0151 0.0099
usemtl rightWall
s 1
f 21//1 22//1 23//1
f 21//1 24//1 22//1
usemtl light
f 25//2 26//2 27//2
f 25//2 28//2 26//2
usemtl backWall
f 57//3 58//3 59//3
f 57//3 60//3 58//3
usemtl shortBox
f 33//4 34//4 35//4
f 36//5 37//5 38//5
f 39//6 40//6 41//6
f 42//7 43//7 44//7
f 45//8 46//8 47//8
f 33//4 48//4 34//4
f 36//5 49//5 37//5
f 39//6 50//6 40//6
f 42//7 51//7 43//7
f 45//8 52//8 46//8
usemtl ceiling
f 53//2 54//2 55//2
f 53//2 56//2 54//2
usemtl tallBox
f 1//4 2//4 3//4
f 4//9 5//9 6//9
f 7//10 8//10 9//10
f 10//11 11//11 12//11
f 13//12 14//13 15//14
f 1//4 16//4 2//4
f 4//9 17//9 5//9
f 7//10 18//10 8//10
f 10//11 19//11 11//11
f 13//12 20//12 14//13
f 15//14 14//13 12//2
f 9//2 12//2 14//13
usemtl floor
f 61//4 62//4 63//4
f 61//4 64//4 62//4
usemtl leftWall
f 29//15 30//16 31//17
f 29//15 32//18 30//16
